<svg width="97" height="24" viewBox="0 0 97 24" fill="none" xmlns="http://www.w3.org/2000/svg">
<path d="M35.2375 0L15.2011 3.92018L12.4262 7.27874V10.8023L11.0538 12.6823L10.9542 5.66248L7.57849 6.31584L7.68738 13.033L0 22.3773L23.5859 21.8876L35.2375 0Z" fill="#A07855"/>
<path d="M33.8828 2.54657L35.2385 0L45.9451 19.8283H42.738L33.8828 2.54657Z" fill="#D4B996"/>
<path d="M46.0973 16.9728L42.6974 10.1446L50.4685 8.57324L46.0973 16.9728Z" fill="#D4B996"/>
<path d="M50.4682 8.57324L49.1895 11.0305L56.79 22.3887H59.4177L50.4682 8.57324Z" fill="#D4B996"/>
<path d="M50.4682 8.57324L49.1895 11.0305L56.79 22.3887H59.4177L50.4682 8.57324Z" fill="#A07855"/>
<path fill-rule="evenodd" clip-rule="evenodd" d="M31.0566 12.7725L33.5781 12.8872V15.5919H31.0566V12.7725ZM31.0566 16.4482V19.2665H33.5781V16.4482H31.0566ZM34.412 16.4482V19.2665H36.932V16.4482H34.412ZM36.932 15.5919V13.0398L34.412 12.9251V15.5919H36.932Z" fill="#D4B996"/>
<path d="M96.046 23.886L56.8915 22.3704L55.7969 20.7705L96.046 23.886Z" fill="#D9D9D9"/>
<path d="M96.046 23.886L56.8915 22.3704L55.7969 20.7705L96.046 23.886Z" fill="#A07855"/>
</svg>
